STARTFONT 2.1
COMMENT  (c) Copyright Bigelow & Holmes 1986, 1985. Lucida is a registered
COMMENT  trademark of Bigelow & Holmes. See LEGAL NOTICE file for terms 
COMMENT  of the license. 
FONT -B&H-Lucida-Medium-R-Normal-Sans-34-240-100-100-P-191-ISO8859-1
SIZE 24 100 100
FONTBOUNDINGBOX 84 39 -22 -7
STARTPROPERTIES 19
COMMENT Begin LogicalFontDescription
FONTNAME_REGISTRY ""
FOUNDRY "B&H"
FAMILY_NAME "Lucida"
WEIGHT_NAME "Medium"
SLANT "R"
SETWIDTH_NAME "Normal"
ADD_STYLE_NAME "Sans"
PIXEL_SIZE 34
POINT_SIZE 240
RESOLUTION_X 100
RESOLUTION_Y 100
SPACING "P"
AVERAGE_WIDTH 191
CHARSET_REGISTRY "ISO8859"
CHARSET_ENCODING "1"
COMMENT END LogicalFontDescription
FONT_ASCENT 31
FONT_DESCENT 8
DEFAULT_CHAR 32
COPYRIGHT "Copyright Bigelow & Holmes 1986, 1985."
ENDPROPERTIES
CHARS 228
STARTCHAR space
ENCODING 32
SWIDTH 42 0
DWIDTH 11 0
BBX 1 1 0 0
BITMAP
00
ENDCHAR
STARTCHAR exclam
ENCODING 33
SWIDTH 42 0
DWIDTH 11 0
BBX 3 25 4 0
BITMAP
E0
E0
E0
E0
E0
E0
E0
E0
E0
E0
E0
E0
E0
E0
E0
E0
E0
E0
00
00
00
E0
E0
E0
E0
ENDCHAR
STARTCHAR quotedbl
ENCODING 34
SWIDTH 42 0
DWIDTH 13 0
BBX 8 8 2 18
BITMAP
E7
E7
E7
E7
E7
E7
E7
E7
ENDCHAR
STARTCHAR numbersign
ENCODING 35
SWIDTH 42 0
DWIDTH 21 0
BBX 21 25 0 0
BITMAP
0071C0
00E1C0
00E1C0
00E380
00E380
01C380
01C380
3FFFF8
3FFFF8
3FFFF8
038700
038F00
038E00
078E00
070E00
FFFFE0
FFFFE0
FFFFE0
0E1C00
0E1C00
0E3800
0E3800
1C3800
1C3800
1C7000
ENDCHAR
STARTCHAR dollar
ENCODING 36
SWIDTH 42 0
DWIDTH 21 0
BBX 15 30 3 -3
BITMAP
0180
0180
0FF8
3FFE
3FCE
7D80
7980
7180
7180
7180
3980
3F80
1F80
0F80
03E0
01F0
01F8
01BC
019E
018E
018E
018E
019E
C1BE
FFFC
FFF8
1FF0
01C0
0180
0180
ENDCHAR
STARTCHAR percent
ENCODING 37
SWIDTH 42 0
DWIDTH 23 0
BBX 21 25 1 0
BITMAP
1E0078
7F8070
7380F0
E1C1E0
E1C3C0
E1C380
E1C780
E1CF00
E1CE00
739E00
7FBC00
1E7800
0073C0
00F7E0
01EE70
03DC38
039C38
079C38
0F1C38
0E1C38
1E1C38
3C1C38
780E70
7007E0
F003C0
ENDCHAR
STARTCHAR ampersand
ENCODING 38
SWIDTH 42 0
DWIDTH 24 0
BBX 21 25 1 0
BITMAP
00F800
03FE00
03FE00
07CF00
078700
078700
078700
078E00
03FE00
03FC00
0FF800
1FE000
3EF078
78F078
707878
F03C70
F03C70
F01EF0
F00FE0
F807E0
7C03C0
7E0780
3FFFC0
1FFCE0
07F0F8
ENDCHAR
STARTCHAR quoteright
ENCODING 39
SWIDTH 42 0
DWIDTH 8 0
BBX 5 10 1 16
BITMAP
F8
F8
F8
F8
38
38
38
30
70
C0
ENDCHAR
STARTCHAR parenleft
ENCODING 40
SWIDTH 42 0
DWIDTH 11 0
BBX 9 32 1 -6
BITMAP
0080
0180
0380
0700
0E00
1C00
1C00
3800
3800
7800
7800
7000
F000
F000
F000
F000
F000
F000
F000
F000
7000
7000
7800
3800
3800
1C00
1C00
0E00
0700
0380
0180
0080
ENDCHAR
STARTCHAR parenright
ENCODING 41
SWIDTH 42 0
DWIDTH 11 0
BBX 9 32 1 -6
BITMAP
8000
C000
E000
7000
3800
1C00
1C00
0E00
0E00
0F00
0F00
0700
0780
0780
0780
0780
0780
0780
0780
0780
0700
0700
0F00
0E00
0E00
1C00
1C00
3800
7000
E000
C000
8000
ENDCHAR
STARTCHAR asterisk
ENCODING 42
SWIDTH 42 0
DWIDTH 16 0
BBX 13 12 2 13
BITMAP
0700
0700
0700
4210
F278
FDF0
0880
0D00
0D80
18C0
38E0
1040
ENDCHAR
STARTCHAR plus
ENCODING 43
SWIDTH 42 0
DWIDTH 21 0
BBX 21 21 0 0
BITMAP
007000
007000
007000
007000
007000
007000
007000
007000
007000
FFFFF8
FFFFF8
FFFFF8
007000
007000
007000
007000
007000
007000
007000
007000
007000
ENDCHAR
STARTCHAR comma
ENCODING 44
SWIDTH 42 0
DWIDTH 11 0
BBX 5 11 3 -6
BITMAP
F8
F8
F8
F8
F8
38
38
38
70
F0
C0
ENDCHAR
STARTCHAR minus
ENCODING 45
SWIDTH 42 0
DWIDTH 21 0
BBX 20 3 1 9
BITMAP
FFFFF0
FFFFF0
FFFFF0
ENDCHAR
STARTCHAR period
ENCODING 46
SWIDTH 42 0
DWIDTH 11 0
BBX 4 4 3 0
BITMAP
F0
F0
F0
F0
ENDCHAR
STARTCHAR slash
ENCODING 47
SWIDTH 42 0
DWIDTH 17 0
BBX 16 32 0 -6
BITMAP
0007
000F
000E
000E
001C
001C
003C
0038
0078
0070
0070
00F0
00E0
01E0
01C0
01C0
0380
0380
0780
0700
0F00
0E00
0E00
1C00
1C00
3C00
3800
3800
7000
7000
F000
E000
ENDCHAR
STARTCHAR zero
ENCODING 48
SWIDTH 42 0
DWIDTH 21 0
BBX 17 25 2 0
BITMAP
03E000
0FF800
1FFC00
3E3E00
3C1E00
780F00
780F00
780F00
F00780
F00780
F00780
F00780
F00780
F00780
F00780
F00780
F00780
780F00
780F00
780F00
3C1E00
3E3E00
1FFC00
0FF800
03E000
ENDCHAR
STARTCHAR one
ENCODING 49
SWIDTH 42 0
DWIDTH 21 0
BBX 8 25 5 0
BITMAP
FF
FF
FF
0F
0F
0F
0F
0F
0F
0F
0F
0F
0F
0F
0F
0F
0F
0F
0F
0F
0F
0F
0F
0F
0F
ENDCHAR
STARTCHAR two
ENCODING 50
SWIDTH 42 0
DWIDTH 21 0
BBX 15 25 3 0
BITMAP
0FC0
7FF0
7FF8
707C
403E
001E
001E
001E
001E
001E
003C
007C
00F8
01F0
03E0
0780
0F00
1E00
3C00
7800
7800
F000
FFFE
FFFE
FFFE
ENDCHAR
STARTCHAR three
ENCODING 51
SWIDTH 42 0
DWIDTH 21 0
BBX 15 25 3 0
BITMAP
3FC0
FFF0
FFF8
C0FC
007C
003C
003C
003C
0078
00F0
3FE0
3F00
3FF0
00F8
003C
001E
001E
001E
001E
001E
003E
C0FC
FFF8
FFF0
7FC0
ENDCHAR
STARTCHAR four
ENCODING 52
SWIDTH 42 0
DWIDTH 21 0
BBX 17 25 2 0
BITMAP
003C00
007C00
007C00
00FC00
01FC00
01DC00
03DC00
079C00
071C00
0F1C00
1E1C00
3C1C00
381C00
781C00
F01C00
FFFF80
FFFF80
FFFF80
001C00
001C00
001C00
001C00
001C00
001C00
001C00
ENDCHAR
STARTCHAR five
ENCODING 53
SWIDTH 42 0
DWIDTH 21 0
BBX 13 25 4 0
BITMAP
FFF8
FFF8
FFF8
E000
E000
E000
E000
E000
E000
FE00
FFC0
FFE0
03F0
00F0
00F8
0078
0078
0078
0078
00F8
00F0
83F0
FFE0
FFC0
FF00
ENDCHAR
STARTCHAR six
ENCODING 54
SWIDTH 42 0
DWIDTH 21 0
BBX 17 25 2 0
BITMAP
01FC00
07FF00
0FFF00
1F0300
3C0000
7C0000
780000
780000
F00000
F1F800
F3FC00
F7FE00
FE1F00
F80F00
F00780
F00780
F00780
700780
700780
780700
380F00
3E1E00
1FFE00
0FF800
03F000
ENDCHAR
STARTCHAR seven
ENCODING 55
SWIDTH 42 0
DWIDTH 21 0
BBX 16 25 4 0
BITMAP
FFFF
FFFF
FFFF
000F
000E
001E
003C
0038
0078
00F0
00F0
01E0
03C0
03C0
0780
0F80
0F00
1F00
1E00
3E00
3C00
3C00
7C00
7800
7800
ENDCHAR
STARTCHAR eight
ENCODING 56
SWIDTH 42 0
DWIDTH 21 0
BBX 16 25 3 0
BITMAP
03E0
0FF8
1FF8
1C3C
381C
381C
381C
381C
3C38
1E30
0F60
07E0
1FF8
3DFC
787E
783F
F01F
F00F
F00F
F00F
F81F
7C3E
7FFC
1FF8
07E0
ENDCHAR
STARTCHAR nine
ENCODING 57
SWIDTH 42 0
DWIDTH 21 0
BBX 17 25 2 0
BITMAP
07E000
1FF800
3FFC00
7C3E00
780F00
F00F00
F00700
F00780
F00780
F00780
F00780
780F80
7C1F80
3FF780
1FE780
0FC780
000700
000F00
000F00
001E00
001E00
607C00
7FF800
7FF000
1FC000
ENDCHAR
STARTCHAR colon
ENCODING 58
SWIDTH 42 0
DWIDTH 11 0
BBX 4 18 3 0
BITMAP
F0
F0
F0
F0
00
00
00
00
00
00
00
00
00
00
F0
F0
F0
F0
ENDCHAR
STARTCHAR semicolon
ENCODING 59
SWIDTH 42 0
DWIDTH 11 0
BBX 4 24 3 -6
BITMAP
F0
F0
F0
F0
00
00
00
00
00
00
00
00
00
00
00
F0
F0
F0
70
70
70
60
E0
80
ENDCHAR
STARTCHAR less
ENCODING 60
SWIDTH 42 0
DWIDTH 21 0
BBX 20 21 1 0
BITMAP
000010
000070
0001F0
0007F0
001FC0
007F00
01FC00
07F000
1FC000
3F0000
FC0000
3F0000
1FC000
07F000
01FC00
007E00
001F80
0007E0
0001F0
000070
000010
ENDCHAR
STARTCHAR equal
ENCODING 61
SWIDTH 42 0
DWIDTH 21 0
BBX 20 9 1 5
BITMAP
FFFFF0
FFFFF0
FFFFF0
000000
000000
000000
FFFFF0
FFFFF0
FFFFF0
ENDCHAR
STARTCHAR greater
ENCODING 62
SWIDTH 42 0
DWIDTH 21 0
BBX 20 21 1 0
BITMAP
800000
E00000
F80000
7E0000
1F8000
0FE000
03F800
00FE00
003F80
000FC0
0003F0
000FC0
003F80
00FE00
03F800
0FE000
3F8000
FE0000
F80000
E00000
800000
ENDCHAR
STARTCHAR question
ENCODING 63
SWIDTH 42 0
DWIDTH 14 0
BBX 14 25 0 0
BITMAP
3FC0
FFF0
FFF8
C0FC
007C
003C
003C
003C
0078
00F8
00F0
01E0
03C0
0780
0700
0F00
0F00
0F00
0F00
0000
0000
0F00
0F00
0F00
0F00
ENDCHAR
STARTCHAR at
ENCODING 64
SWIDTH 42 0
DWIDTH 29 0
BBX 27 25 4 0
BITMAP
000FE000
007FFC00
01FFFE00
03F01F80
07C00780
0F0003C0
1E07E1C0
3C1FE0E0
383FE0E0
707040E0
70E0C0E0
F0E1C0E0
E0C3C0E0
E1C381C0
E1C6C3C0
E1CEE780
E1FCFF80
F1F8FE00
70F07C00
78000000
3C000000
1F80C000
0FFFC000
07FF8000
00FE0000
ENDCHAR
STARTCHAR A
ENCODING 65
SWIDTH 42 0
DWIDTH 23 0
BBX 23 25 0 0
BITMAP
003C00
007C00
007E00
00FE00
00FE00
00FF00
01EF00
01CF80
03C780
038780
0387C0
0783C0
0703C0
0F01E0
0E01E0
0FFFF0
1FFFF0
1FFFF0
1C00F8
380078
38007C
78003C
70003C
70003E
E0001E
ENDCHAR
STARTCHAR B
ENCODING 66
SWIDTH 42 0
DWIDTH 20 0
BBX 15 25 3 0
BITMAP
FFC0
FFF0
FFF8
F0FC
F03C
F03C
F03C
F03C
F038
F070
F1E0
FFC0
FFC0
FFF0
F0F8
F03C
F03E
F01E
F01E
F01E
F03E
F07C
FFFC
FFF8
FFE0
ENDCHAR
STARTCHAR C
ENCODING 67
SWIDTH 42 0
DWIDTH 24 0
BBX 20 25 2 0
BITMAP
00FF00
03FFF0
0FFFF0
1F80F0
3E0010
3C0000
7C0000
780000
F80000
F00000
F00000
F00000
F00000
F00000
F00000
F00000
F80000
780000
7C0000
3C0000
3E0010
1F80F0
0FFFF0
03FFE0
00FF00
ENDCHAR
STARTCHAR D
ENCODING 68
SWIDTH 42 0
DWIDTH 25 0
BBX 21 25 3 0
BITMAP
FFF800
FFFE00
FFFF80
F00FC0
F003E0
F001F0
F000F0
F000F0
F000F8
F00078
F00078
F00078
F00078
F00078
F00078
F00078
F00070
F000F0
F000F0
F001E0
F003E0
F00FC0
FFFF80
FFFE00
FFF800
ENDCHAR
STARTCHAR E
ENCODING 69
SWIDTH 42 0
DWIDTH 18 0
BBX 15 25 3 0
BITMAP
FFFC
FFFC
FFFC
F000
F000
F000
F000
F000
F000
F000
F000
FFF8
FFF8
FFF8
F000
F000
F000
F000
F000
F000
F000
F000
FFFE
FFFE
FFFE
ENDCHAR
STARTCHAR F
ENCODING 70
SWIDTH 42 0
DWIDTH 18 0
BBX 14 25 3 0
BITMAP
FFFC
FFFC
FFFC
F000
F000
F000
F000
F000
F000
F000
F000
FFF0
FFF0
FFF0
F000
F000
F000
F000
F000
F000
F000
F000
F000
F000
F000
ENDCHAR
STARTCHAR G
ENCODING 71
SWIDTH 42 0
DWIDTH 25 0
BBX 20 25 2 0
BITMAP
00FF80
03FFF0
0FFFF0
1F80F0
3E0010
3C0000
7C0000
780000
F80000
F00000
F00000
F00000
F00000
F000F0
F000F0
F000F0
F800F0
7800F0
7800F0
3C00F0
3E00F0
1F80F0
0FFFF0
07FFF0
00FF80
ENDCHAR
STARTCHAR H
ENCODING 72
SWIDTH 42 0
DWIDTH 25 0
BBX 19 25 3 0
BITMAP
F001E0
F001E0
F001E0
F001E0
F001E0
F001E0
F001E0
F001E0
F001E0
F001E0
FFFFE0
FFFFE0
FFFFE0
F001E0
F001E0
F001E0
F001E0
F001E0
F001E0
F001E0
F001E0
F001E0
F001E0
F001E0
F001E0
ENDCHAR
STARTCHAR I
ENCODING 73
SWIDTH 42 0
DWIDTH 10 0
BBX 4 25 3 0
BITMAP
F0
F0
F0
F0
F0
F0
F0
F0
F0
F0
F0
F0
F0
F0
F0
F0
F0
F0
F0
F0
F0
F0
F0
F0
F0
ENDCHAR
STARTCHAR J
ENCODING 74
SWIDTH 42 0
DWIDTH 11 0
BBX 11 31 -2 -6
BITMAP
01E0
01E0
01E0
01E0
01E0
01E0
01E0
01E0
01E0
01E0
01E0
01E0
01E0
01E0
01E0
01E0
01E0
01E0
01E0
01E0
01E0
01E0
01E0
01E0
01E0
01E0
03C0
83C0
FF80
FF00
FC00
ENDCHAR
STARTCHAR K
ENCODING 75
SWIDTH 42 0
DWIDTH 22 0
BBX 19 25 3 0
BITMAP
F00700
F00E00
F01E00
F03C00
F03800
F07800
F0F000
F1E000
F1C000
F3C000
F78000
FF0000
FF8000
FF8000
F7C000
F3E000
F1F000
F0F800
F0F800
F07C00
F03E00
F01F00
F01F80
F00F80
F007E0
ENDCHAR
STARTCHAR L
ENCODING 76
SWIDTH 42 0
DWIDTH 18 0
BBX 15 25 3 0
BITMAP
F000
F000
F000
F000
F000
F000
F000
F000
F000
F000
F000
F000
F000
F000
F000
F000
F000
F000
F000
F000
F000
F000
FFFE
FFFE
FFFE
ENDCHAR
STARTCHAR M
ENCODING 77
SWIDTH 42 0
DWIDTH 29 0
BBX 23 25 3 0
BITMAP
F8003E
FC003E
FC007E
FC007E
FE00FE
FE00FE
FE00FE
EF01FE
EF01DE
EF81DE
E7839E
E7839E
E7C39E
E3C71E
E3C71E
E3E71E
E1EE1E
E1EE1E
E1FE1E
E0FC1E
E0FC1E
E0FC1E
E0781E
E0001E
E0001E
ENDCHAR
STARTCHAR N
ENCODING 78
SWIDTH 42 0
DWIDTH 25 0
BBX 19 25 3 0
BITMAP
F000E0
F800E0
F800E0
FC00E0
FE00E0
FE00E0
FF00E0
EF80E0
E780E0
E7C0E0
E3E0E0
E1E0E0
E1F0E0
E0F8E0
E0F8E0
E07CE0
E03EE0
E03EE0
E01FE0
E00FE0
E00FE0
E007E0
E003E0
E003E0
E001E0
ENDCHAR
STARTCHAR O
ENCODING 79
SWIDTH 42 0
DWIDTH 26 0
BBX 23 25 2 0
BITMAP
00FE00
07FFC0
0FFFE0
1F83F0
3E00F8
3C0078
78003C
78003C
F8003E
F0001E
F0001E
F0001E
F0001E
F0001E
F0001E
F0001E
F8003E
78003C
78003C
3C0078
3E00F8
1F83F0
0FFFE0
07FFC0
00FE00
ENDCHAR
STARTCHAR P
ENCODING 80
SWIDTH 42 0
DWIDTH 19 0
BBX 15 25 3 0
BITMAP
FFE0
FFF8
FFFC
F07C
F03E
F01E
F01E
F01E
F01E
F03E
F03C
F0FC
FFF8
FFF0
FFC0
F000
F000
F000
F000
F000
F000
F000
F000
F000
F000
ENDCHAR
STARTCHAR Q
ENCODING 81
SWIDTH 42 0
DWIDTH 26 0
BBX 25 31 2 -6
BITMAP
00FE0000
07FF8000
0FFFE000
1F83F000
3E00F800
3C007800
78003C00
78003C00
F8003C00
F0001E00
F0001E00
F0001E00
F0001E00
F0001E00
F0001E00
F0001E00
F8003E00
78003C00
78003C00
3C007C00
3E00F800
1F83F000
0FFFE000
07FFC000
00FF8000
0003F000
0001FE00
0000FF80
00003F00
00000F00
00000200
ENDCHAR
STARTCHAR R
ENCODING 82
SWIDTH 42 0
DWIDTH 21 0
BBX 18 25 3 0
BITMAP
FFE000
FFF800
FFFC00
F07E00
F03E00
F01E00
F01E00
F01E00
F01E00
F03C00
F03C00
F0F800
FFE000
FFC000
FFE000
F1F000
F0F000
F0F800
F07C00
F03E00
F03E00
F01F00
F00F80
F00F80
F007C0
ENDCHAR
STARTCHAR S
ENCODING 83
SWIDTH 42 0
DWIDTH 18 0
BBX 15 25 2 0
BITMAP
0FF0
3FF8
7FF8
7C38
F008
F000
F000
F000
F800
7E00
3F80
1FC0
0FF0
03F8
00FC
007E
003E
001E
001E
001E
803E
F07C
FFF8
FFF0
3FC0
ENDCHAR
STARTCHAR T
ENCODING 84
SWIDTH 42 0
DWIDTH 21 0
BBX 22 25 0 0
BITMAP
FFFFFC
FFFFFC
FFFFFC
007800
007800
007800
007800
007800
007800
007800
007800
007800
007800
007800
007800
007800
007800
007800
007800
007800
007800
007800
007800
007800
007800
ENDCHAR
STARTCHAR U
ENCODING 85
SWIDTH 42 0
DWIDTH 24 0
BBX 18 25 3 0
BITMAP
F001C0
F001C0
F001C0
F001C0
F001C0
F001C0
F001C0
F001C0
F001C0
F001C0
F001C0
F001C0
F001C0
F001C0
F001C0
F001C0
F001C0
F001C0
F001C0
F803C0
780380
7E0780
3FFF00
1FFE00
07F800
ENDCHAR
STARTCHAR V
ENCODING 86
SWIDTH 42 0
DWIDTH 22 0
BBX 21 25 1 0
BITMAP
F00038
F00078
F80070
780070
7800F0
3C00E0
3C00E0
3E01C0
1E01C0
1E01C0
1F0380
0F0380
0F0380
0F8700
078700
078700
03CE00
03CE00
03FE00
01FC00
01FC00
01FC00
00F800
00F800
00F000
ENDCHAR
STARTCHAR W
ENCODING 87
SWIDTH 42 0
DWIDTH 29 0
BBX 29 25 0 0
BITMAP
F0078038
F00F8038
F00F8070
780F8070
780FC070
781FC0F0
781FC0E0
3C1FC0E0
3C1FE0E0
3C1DE1E0
3C39E1C0
1E39E1C0
1E39F1C0
1E38F380
1E70F380
0F70F380
0F70FB80
0F707F00
0FF07F00
07E07F00
07E07E00
07E07E00
07E03E00
03C03E00
03C03C00
ENDCHAR
STARTCHAR X
ENCODING 88
SWIDTH 42 0
DWIDTH 21 0
BBX 20 25 0 0
BITMAP
F800F0
7C01E0
3C01C0
3E03C0
1F0780
1F0700
0F8F00
079E00
07DC00
03FC00
01F800
01F000
00F800
01F800
01FC00
03FC00
07BE00
071F00
0F0F00
1E0F80
1C07C0
3C07C0
7803E0
7001E0
F001F0
ENDCHAR
STARTCHAR Y
ENCODING 89
SWIDTH 42 0
DWIDTH 21 0
BBX 21 25 0 0
BITMAP
F00078
780070
7C00F0
3C01E0
3E01C0
1E03C0
1F0380
0F8700
078F00
07CE00
03DE00
03FC00
01F800
01F800
00F000
00F000
00F000
00F000
00F000
00F000
00F000
00F000
00F000
00F000
00F000
ENDCHAR
STARTCHAR Z
ENCODING 90
SWIDTH 42 0
DWIDTH 21 0
BBX 17 25 2 0
BITMAP
7FFF80
7FFF80
7FFF80
000F80
001F00
001F00
003E00
007C00
007C00
00F800
01F000
01F000
03E000
07C000
07C000
0F8000
1F0000
1F0000
3E0000
7C0000
7C0000
F80000
FFFF80
FFFF80
FFFF80
ENDCHAR
STARTCHAR bracketleft
ENCODING 91
SWIDTH 42 0
DWIDTH 11 0
BBX 7 32 3 -6
BITMAP
FE
FE
FE
E0
E0
E0
E0
E0
E0
E0
E0
E0
E0
E0
E0
E0
E0
E0
E0
E0
E0
E0
E0
E0
E0
E0
E0
E0
E0
FE
FE
FE
ENDCHAR
STARTCHAR backslash
ENCODING 92
SWIDTH 42 0
DWIDTH 17 0
BBX 16 32 0 -6
BITMAP
E000
F000
7000
7000
3800
3800
3C00
1C00
1C00
0E00
0E00
0F00
0700
0780
0380
0380
01C0
01C0
01E0
00E0
00F0
0070
0070
0078
0038
003C
001C
001C
000E
000E
000F
0007
ENDCHAR
STARTCHAR bracketright
ENCODING 93
SWIDTH 42 0
DWIDTH 11 0
BBX 7 32 1 -6
BITMAP
FE
FE
FE
0E
0E
0E
0E
0E
0E
0E
0E
0E
0E
0E
0E
0E
0E
0E
0E
0E
0E
0E
0E
0E
0E
0E
0E
0E
0E
FE
FE
FE
ENDCHAR
STARTCHAR asciicircum
ENCODING 94
SWIDTH 42 0
DWIDTH 21 0
BBX 20 22 1 4
BITMAP
002000
006000
006000
006000
00F000
00F000
01F800
01F800
039C00
039C00
079E00
070E00
0F0F00
0E0700
1E0780
1C0380
3C03C0
3801C0
7801E0
7000E0
F000F0
E00070
ENDCHAR
STARTCHAR underscore
ENCODING 95
SWIDTH 42 0
DWIDTH 17 0
BBX 14 3 2 -4
BITMAP
FFFC
FFFC
FFFC
ENDCHAR
STARTCHAR quoteleft
ENCODING 96
SWIDTH 42 0
DWIDTH 8 0
BBX 5 10 1 16
BITMAP
38
70
E0
E0
E0
F8
F8
F8
F8
F8
ENDCHAR
STARTCHAR a
ENCODING 97
SWIDTH 42 0
DWIDTH 19 0
BBX 17 18 1 0
BITMAP
07F000
3FF800
3FFC00
307C00
203C00
003C00
003C00
07FC00
1FFC00
7FFC00
7C3C00
F83C00
F03C00
F03C00
F87C00
7FFF80
7FCF80
1F0780
ENDCHAR
STARTCHAR b
ENCODING 98
SWIDTH 42 0
DWIDTH 21 0
BBX 16 26 3 0
BITMAP
F000
F000
F000
F000
F000
F000
F000
F000
F1F0
F3FC
F7FC
FC3E
F81E
F00F
F00F
F00F
F00F
F00F
F00F
F00F
F01E
F81E
FC3E
FFFC
F7F8
E1E0
ENDCHAR
STARTCHAR c
ENCODING 99
SWIDTH 42 0
DWIDTH 17 0
BBX 14 18 2 0
BITMAP
07FC
1FFC
3FFC
7E0C
7C00
7800
F000
F000
F000
F000
F000
F000
7800
7C00
3E04
3FFC
0FFC
07F0
ENDCHAR
STARTCHAR d
ENCODING 100
SWIDTH 42 0
DWIDTH 21 0
BBX 16 26 2 0
BITMAP
000F
000F
000F
000F
000F
000F
000F
000F
078F
1FEF
3FFF
7C3F
781F
780F
F00F
F00F
F00F
F00F
F00F
F00F
F00F
781F
7C3F
3FEF
3FCF
0F8F
ENDCHAR
STARTCHAR e
ENCODING 101
SWIDTH 42 0
DWIDTH 19 0
BBX 15 18 2 0
BITMAP
07E0
1FF0
3FF8
3C3C
781C
701E
F01E
FFFE
FFFE
FFFE
F000
F000
7800
7C00
3E06
1FFE
0FFE
03F8
ENDCHAR
STARTCHAR f
ENCODING 102
SWIDTH 42 0
DWIDTH 12 0
BBX 13 27 1 0
BITMAP
03F0
07F8
0FF8
0F08
1E00
1E00
1E00
1E00
1E00
FFE0
FFE0
FFE0
1E00
1E00
1E00
1E00
1E00
1E00
1E00
1E00
1E00
1E00
1E00
1E00
1E00
1E00
1E00
ENDCHAR
STARTCHAR g
ENCODING 103
SWIDTH 42 0
DWIDTH 21 0
BBX 16 25 2 -7
BITMAP
078F
1FEF
3FFF
7C3F
781F
780F
F00F
F00F
F00F
F00F
F00F
F00F
F00F
781F
7C3F
3FEF
1FCF
0F8F
000F
000E
001E
203E
3FFC
7FF8
1FE0
ENDCHAR
STARTCHAR h
ENCODING 104
SWIDTH 42 0
DWIDTH 21 0
BBX 15 26 3 0
BITMAP
F000
F000
F000
F000
F000
F000
F000
F000
F0F0
F3FC
F7FC
FE3E
FC1E
F81E
F01E
F01E
F01E
F01E
F01E
F01E
F01E
F01E
F01E
F01E
F01E
F01E
ENDCHAR
STARTCHAR i
ENCODING 105
SWIDTH 42 0
DWIDTH 10 0
BBX 4 25 3 0
BITMAP
F0
F0
F0
F0
00
00
00
F0
F0
F0
F0
F0
F0
F0
F0
F0
F0
F0
F0
F0
F0
F0
F0
F0
F0
ENDCHAR
STARTCHAR j
ENCODING 106
SWIDTH 42 0
DWIDTH 10 0
BBX 10 32 -2 -7
BITMAP
03C0
03C0
03C0
03C0
0000
0000
0000
03C0
03C0
03C0
03C0
03C0
03C0
03C0
03C0
03C0
03C0
03C0
03C0
03C0
03C0
03C0
03C0
03C0
03C0
03C0
03C0
03C0
8780
FF80
FF00
7E00
ENDCHAR
STARTCHAR k
ENCODING 107
SWIDTH 42 0
DWIDTH 20 0
BBX 18 26 3 0
BITMAP
F00000
F00000
F00000
F00000
F00000
F00000
F00000
F00000
F01E00
F03C00
F07800
F07000
F0F000
F1E000
F3C000
F78000
FF8000
FFC000
F7E000
F3F000
F1F000
F0F800
F07C00
F03E00
F01F00
F00FC0
ENDCHAR
STARTCHAR l
ENCODING 108
SWIDTH 42 0
DWIDTH 10 0
BBX 4 26 3 0
BITMAP
F0
F0
F0
F0
F0
F0
F0
F0
F0
F0
F0
F0
F0
F0
F0
F0
F0
F0
F0
F0
F0
F0
F0
F0
F0
F0
ENDCHAR
STARTCHAR m
ENCODING 109
SWIDTH 42 0
DWIDTH 32 0
BBX 26 18 3 0
BITMAP
F0F81E00
F3FC7F80
F7FCFF80
FE3FC7C0
FC1F83C0
F81F03C0
F01E03C0
F01E03C0
F01E03C0
F01E03C0
F01E03C0
F01E03C0
F01E03C0
F01E03C0
F01E03C0
F01E03C0
F01E03C0
F01E03C0
ENDCHAR
STARTCHAR n
ENCODING 110
SWIDTH 42 0
DWIDTH 21 0
BBX 15 18 3 0
BITMAP
F0F0
F3FC
F7FC
FE3E
FC1E
F81E
F01E
F01E
F01E
F01E
F01E
F01E
F01E
F01E
F01E
F01E
F01E
F01E
ENDCHAR
STARTCHAR o
ENCODING 111
SWIDTH 42 0
DWIDTH 21 0
BBX 17 18 2 0
BITMAP
07F000
1FFC00
3FFE00
7C1F00
780F00
780F00
F00780
F00780
F00780
F00780
F00780
F00780
780F00
780F00
7C1F00
3FFE00
1FFC00
07F000
ENDCHAR
STARTCHAR p
ENCODING 112
SWIDTH 42 0
DWIDTH 21 0
BBX 16 25 3 -7
BITMAP
F1F0
F3FC
F7FC
FC3E
F81E
F00F
F00F
F00F
F00F
F00F
F00F
F00F
F01E
F81E
FC3E
FFFC
F7F8
F1E0
F000
F000
F000
F000
F000
F000
F000
ENDCHAR
STARTCHAR q
ENCODING 113
SWIDTH 42 0
DWIDTH 21 0
BBX 16 25 2 -7
BITMAP
078F
1FEF
3FFF
7C3F
781F
780F
F00F
F00F
F00F
F00F
F00F
F00F
F00F
781F
7C3F
3FEF
3FCF
0F8F
000F
000F
000F
000F
000F
000F
000F
ENDCHAR
STARTCHAR r
ENCODING 114
SWIDTH 42 0
DWIDTH 14 0
BBX 11 18 3 0
BITMAP
F0E0
F3E0
F7E0
FE00
FC00
F800
F000
F000
F000
F000
F000
F000
F000
F000
F000
F000
F000
F000
ENDCHAR
STARTCHAR s
ENCODING 115
SWIDTH 42 0
DWIDTH 17 0
BBX 12 18 3 0
BITMAP
1FE0
7FE0
7FE0
F860
F000
F000
FC00
7F00
7FC0
1FE0
07F0
01F0
00F0
80F0
E1F0
FFE0
FFC0
3F80
ENDCHAR
STARTCHAR t
ENCODING 116
SWIDTH 42 0
DWIDTH 13 0
BBX 11 23 1 0
BITMAP
3C00
3C00
3C00
3C00
3C00
FFE0
FFE0
FFE0
3C00
3C00
3C00
3C00
3C00
3C00
3C00
3C00
3C00
3C00
3C00
3E00
1FE0
1FE0
07E0
ENDCHAR
STARTCHAR u
ENCODING 117
SWIDTH 42 0
DWIDTH 21 0
BBX 15 18 3 0
BITMAP
F01E
F01E
F01E
F01E
F01E
F01E
F01E
F01E
F01E
F01E
F01E
F01E
F03E
F07E
F8FE
7FDE
7F9E
1E1E
ENDCHAR
STARTCHAR v
ENCODING 118
SWIDTH 42 0
DWIDTH 18 0
BBX 17 18 0 0
BITMAP
F00380
F00780
F80700
780F00
780E00
3C0E00
3C1E00
3E1C00
1E1C00
1E3800
1F3800
0F7800
0F7000
0FF000
07E000
07E000
03E000
03C000
ENDCHAR
STARTCHAR w
ENCODING 119
SWIDTH 42 0
DWIDTH 26 0
BBX 26 18 0 0
BITMAP
E01E01C0
F01E03C0
703F0380
703F0380
703F0780
383F0700
38738700
38738F00
3C738E00
1CE38E00
1CE1DE00
1CE1DC00
0FE1DC00
0FC1FC00
0FC0F800
0FC0F800
0780F800
0780F000
ENDCHAR
STARTCHAR x
ENCODING 120
SWIDTH 42 0
DWIDTH 21 0
BBX 18 18 1 0
BITMAP
F003C0
780780
3C0F00
1E0E00
0F1E00
073C00
07B800
03F800
01F000
03E000
07F000
077800
0F3C00
1E1C00
3C1E00
380F00
780780
F003C0
ENDCHAR
STARTCHAR y
ENCODING 121
SWIDTH 42 0
DWIDTH 18 0
BBX 17 25 0 -7
BITMAP
F00380
F80700
780700
780700
7C0E00
3C0E00
3C1E00
3E1C00
1E1C00
1E3800
1F3800
0F7800
0F7000
07F000
07E000
07E000
03E000
03C000
03C000
03C000
038000
078000
070000
070000
0F0000
ENDCHAR
STARTCHAR z
ENCODING 122
SWIDTH 42 0
DWIDTH 19 0
BBX 15 18 2 0
BITMAP
7FFE
7FFE
7FFE
003C
0078
00F0
00F0
01E0
03C0
0780
0F00
1E00
3C00
3C00
7800
FFFE
FFFE
FFFE
ENDCHAR
STARTCHAR braceleft
ENCODING 123
SWIDTH 42 0
DWIDTH 11 0
BBX 8 32 1 -6
BITMAP
07
1F
1F
3C
38
38
38
3C
3C
1C
1C
1C
1C
18
38
F0
F0
F8
38
1C
1C
1C
1C
1C
3C
38
38
38
3C
1F
0F
07
ENDCHAR
STARTCHAR bar
ENCODING 124
SWIDTH 42 0
DWIDTH 9 0
BBX 3 32 3 -6
BITMAP
E0
E0
E0
E0
E0
E0
E0
E0
E0
E0
E0
E0
E0
E0
E0
E0
E0
E0
E0
E0
E0
E0
E0
E0
E0
E0
E0
E0
E0
E0
E0
E0
ENDCHAR
STARTCHAR braceright
ENCODING 125
SWIDTH 42 0
DWIDTH 11 0
BBX 8 32 2 -6
BITMAP
E0
F0
F8
3C
1C
1C
1C
3C
38
38
38
38
38
1C
1F
0F
0F
1C
18
38
38
38
38
3C
3C
1C
1C
1C
3C
F8
F8
E0
ENDCHAR
STARTCHAR asciitilde
ENCODING 126
SWIDTH 42 0
DWIDTH 21 0
BBX 20 7 1 6
BITMAP
1F0000
3FC070
7FE070
F1F8E0
E07FE0
E01FC0
000F80
ENDCHAR
STARTCHAR exclamdown
ENCODING 161
SWIDTH 42 0
DWIDTH 11 0
BBX 3 25 4 -7
BITMAP
E0
E0
E0
E0
00
00
00
E0
E0
E0
E0
E0
E0
E0
E0
E0
E0
E0
E0
E0
E0
E0
E0
E0
E0
ENDCHAR
STARTCHAR cent
ENCODING 162
SWIDTH 42 0
DWIDTH 21 0
BBX 14 25 3 0
BITMAP
0180
0180
0180
07F8
0FFC
3FFC
3D84
7980
7180
F180
F180
F180
F180
F180
F180
F180
7980
7980
3D8C
3FFC
1FFC
07F8
0180
0180
0180
ENDCHAR
STARTCHAR sterling
ENCODING 163
SWIDTH 42 0
DWIDTH 21 0
BBX 14 25 4 0
BITMAP
01F8
07FC
0FFC
0F04
1E00
1E00
1E00
1E00
1E00
1E00
1E00
FFE0
FFE0
FFE0
1E00
1E00
1E00
1E00
1E00
1C00
3800
3000
FFFC
FFFC
FFFC
ENDCHAR
STARTCHAR currency
ENCODING 164
SWIDTH 42 0
DWIDTH 21 0
BBX 19 21 1 2
BITMAP
6000C0
E000E0
F1F1E0
7BFBC0
3FFF80
1F1F00
1C0700
1C0700
380380
380380
380380
380380
380380
1C0700
1C0700
1E0F00
3FFF80
7BFBC0
F1F1E0
E000E0
6000C0
ENDCHAR
STARTCHAR yen
ENCODING 165
SWIDTH 42 0
DWIDTH 21 0
BBX 20 25 1 0
BITMAP
F800F0
7C01E0
7C01C0
3E03C0
1F0780
0F8F00
0F9E00
07DE00
03FC00
03F800
01F000
1FFF00
1FFF00
1FFF00
00F000
00F000
1FFF00
1FFF00
1FFF00
00F000
00F000
00F000
00F000
00F000
00F000
ENDCHAR
STARTCHAR brokenbar
ENCODING 166
SWIDTH 42 0
DWIDTH 9 0
BBX 3 32 3 -6
BITMAP
E0
E0
E0
E0
E0
E0
E0
E0
E0
E0
E0
E0
E0
00
00
00
00
00
00
E0
E0
E0
E0
E0
E0
E0
E0
E0
E0
E0
E0
E0
ENDCHAR
STARTCHAR section
ENCODING 167
SWIDTH 42 0
DWIDTH 21 0
BBX 14 32 4 -7
BITMAP
0FE0
3FF8
7FF8
7818
F000
E000
E000
F000
F800
7E00
3FC0
7FE0
77F8
E1F8
E07C
E03C
F01C
F81C
7E1C
7FF8
3FF0
0FE0
03F0
0078
003C
001C
001C
803C
E07C
FFF8
FFF0
1FC0
ENDCHAR
STARTCHAR dieresis
ENCODING 168
SWIDTH 42 0
DWIDTH 21 0
BBX 9 3 6 22
BITMAP
E380
E380
E380
ENDCHAR
STARTCHAR copyright
ENCODING 169
SWIDTH 42 0
DWIDTH 29 0
BBX 26 25 2 0
BITMAP
007F8000
01FFE000
07FFF800
0FC0FC00
1F003E00
3C000F00
383F8700
707F8780
70F08380
F0E003C0
E1C001C0
E1C001C0
E1C001C0
E1C001C0
E1E001C0
F0F083C0
70FF8380
707F8780
381E0700
3C000F00
1F003E00
0FC0FC00
07FFF800
01FFE000
007F8000
ENDCHAR
STARTCHAR ordfeminine
ENCODING 170
SWIDTH 42 0
DWIDTH 14 0
BBX 13 14 1 11
BITMAP
3F80
7FC0
7FE0
41E0
00E0
0FE0
3FE0
7FE0
F0E0
E0E0
E1E0
FF78
7F78
3C38
ENDCHAR
STARTCHAR guillemotleft
ENCODING 171
SWIDTH 42 0
DWIDTH 18 0
BBX 15 16 2 1
BITMAP
020C
078E
0F1E
1E3C
3C78
3CF0
79F0
F3E0
F1E0
79F0
3CF0
1C78
1E3C
0F1C
078E
020C
ENDCHAR
STARTCHAR logicalnot
ENCODING 172
SWIDTH 42 0
DWIDTH 21 0
BBX 20 9 1 5
BITMAP
FFFFF0
FFFFF0
FFFFF0
000070
000070
000070
000070
000070
000070
ENDCHAR
STARTCHAR hyphen
ENCODING 173
SWIDTH 42 0
DWIDTH 11 0
BBX 7 3 2 9
BITMAP
FE
FE
FE
ENDCHAR
STARTCHAR registered
ENCODING 174
SWIDTH 42 0
DWIDTH 21 0
BBX 15 15 3 10
BITMAP
07C0
1FF0
3838
7FDC
6FEC
CCE6
CCE6
CF86
CF86
CD86
6CCC
7C7C
3838
1FF0
07C0
ENDCHAR
STARTCHAR macron
ENCODING 175
SWIDTH 42 0
DWIDTH 21 0
BBX 9 3 6 22
BITMAP
FF80
FF80
FF80
ENDCHAR
STARTCHAR degree
ENCODING 176
SWIDTH 42 0
DWIDTH 9 0
BBX 6 6 2 19
BITMAP
78
FC
CC
CC
FC
78
ENDCHAR
STARTCHAR plusminus
ENCODING 177
SWIDTH 42 0
DWIDTH 21 0
BBX 21 21 0 0
BITMAP
007000
007000
007000
007000
007000
007000
FFFFF8
FFFFF8
FFFFF8
007000
007000
007000
007000
007000
007000
000000
000000
000000
FFFFF8
FFFFF8
FFFFF8
ENDCHAR
STARTCHAR twosuperior
ENCODING 178
SWIDTH 42 0
DWIDTH 13 0
BBX 9 15 -21 10
BITMAP
3E00
FF00
C380
0180
0180
0180
0300
0700
0E00
1C00
3000
6000
E000
FF80
FF80
ENDCHAR
STARTCHAR threesuperior
ENCODING 179
SWIDTH 42 0
DWIDTH 13 0
BBX 8 15 -21 10
BITMAP
7C
FE
87
03
03
06
7C
7C
06
03
03
03
87
FE
FC
ENDCHAR
STARTCHAR acute
ENCODING 180
SWIDTH 42 0
DWIDTH 21 0
BBX 7 5 8 21
BITMAP
1E
3C
38
70
E0
ENDCHAR
STARTCHAR mu
ENCODING 181
SWIDTH 42 0
DWIDTH 21 0
BBX 15 24 3 -6
BITMAP
F01E
F01E
F01E
F01E
F01E
F01E
F01E
F01E
F01E
F01E
F01E
F01E
F03E
F03E
F87E
FFDE
FFDE
FF9E
F000
F000
F000
F000
F000
F000
ENDCHAR
STARTCHAR paragraph
ENCODING 182
SWIDTH 42 0
DWIDTH 21 0
BBX 14 31 3 -6
BITMAP
1FFC
7FFC
7FFC
FFDC
FFDC
FFDC
FFDC
FFDC
FFDC
7FDC
3FDC
1FDC
07DC
01DC
01DC
01DC
01DC
01DC
01DC
01DC
01DC
01DC
01DC
01DC
01DC
01DC
01DC
01DC
01DC
01DC
01DC
ENDCHAR
STARTCHAR periodcentered
ENCODING 183
SWIDTH 42 0
DWIDTH 21 0
BBX 4 4 9 8
BITMAP
F0
F0
F0
F0
ENDCHAR
STARTCHAR cedilla
ENCODING 184
SWIDTH 42 0
DWIDTH 21 0
BBX 5 8 9 -7
BITMAP
30
60
60
38
38
38
F8
F0
ENDCHAR
STARTCHAR onesuperior
ENCODING 185
SWIDTH 42 0
DWIDTH 13 0
BBX 4 15 -22 10
BITMAP
F0
F0
30
30
30
30
30
30
30
30
30
30
30
30
30
ENDCHAR
STARTCHAR ordmasculine
ENCODING 186
SWIDTH 42 0
DWIDTH 14 0
BBX 12 14 1 11
BITMAP
1F80
3FC0
7FE0
71E0
E0F0
E0F0
E0F0
E0F0
E0F0
E0F0
71E0
7FE0
3FC0
1F80
ENDCHAR
STARTCHAR guillemotright
ENCODING 187
SWIDTH 42 0
DWIDTH 18 0
BBX 15 16 1 1
BITMAP
6080
E3C0
F1E0
78F0
3C70
1E78
1F3C
0F1E
0F9E
1F3C
1E78
3C78
78F0
71E0
E3C0
6080
ENDCHAR
STARTCHAR onequarter
ENCODING 188
SWIDTH 42 0
DWIDTH 27 0
BBX 23 25 7 0
BITMAP
780078
7800F0
1800E0
1801E0
1803C0
180380
180780
180F00
180E00
181C00
183C38
187838
187078
18F0F8
19E1D8
01C198
038318
078718
0F0E18
0E0FFE
1E0FFE
3C0018
380018
700018
F00018
ENDCHAR
STARTCHAR onehalf
ENCODING 189
SWIDTH 42 0
DWIDTH 27 0
BBX 22 25 7 0
BITMAP
780078
7800F0
1800E0
1801E0
1803C0
180380
180780
180F00
180E00
181C00
183DF0
187FF8
18761C
18F00C
19E00C
01C00C
038018
078038
0F0070
0E00E0
1E0180
3C0300
380700
7007FC
F007FC
ENDCHAR
STARTCHAR threequarters
ENCODING 190
SWIDTH 42 0
DWIDTH 27 0
BBX 23 25 7 0
BITMAP
7C0078
FE00F0
8700E0
0301E0
0303C0
060380
7C0780
7C0F00
060E00
031C00
033C38
037838
877078
FEF0F8
FDE1D8
01C198
038318
078718
0F0E18
0E0FFE
1E0FFE
3C0018
380018
700018
F00018
ENDCHAR
STARTCHAR questiondown
ENCODING 191
SWIDTH 42 0
DWIDTH 14 0
BBX 14 25 0 -7
BITMAP
03C0
03C0
03C0
03C0
0000
0000
03C0
03C0
03C0
03C0
0380
0780
0F00
1E00
3C00
7C00
7800
F000
F000
F000
F800
FC0C
7FFC
3FFC
0FF0
ENDCHAR
STARTCHAR Agrave
ENCODING 192
SWIDTH 42 0
DWIDTH 23 0
BBX 23 32 0 0
BITMAP
01E000
00F000
007000
003800
001C00
000000
000000
003C00
007C00
007E00
00FE00
00FE00
00FF00
01EF00
01CF80
03C780
038780
0387C0
0783C0
0703C0
0F01E0
0E01E0
0FFFF0
1FFFF0
1FFFF0
1C00F8
380078
38007C
78003C
70003C
70003E
E0001E
ENDCHAR
STARTCHAR Aacute
ENCODING 193
SWIDTH 42 0
DWIDTH 23 0
BBX 23 32 0 0
BITMAP
000F00
001E00
001C00
003800
007000
000000
000000
003C00
007C00
007E00
00FE00
00FE00
00FF00
01EF00
01CF80
03C780
038780
0387C0
0783C0
0703C0
0F01E0
0E01E0
0FFFF0
1FFFF0
1FFFF0
1C00F8
380078
38007C
78003C
70003C
70003E
E0001E
ENDCHAR
STARTCHAR Acircumflex
ENCODING 194
SWIDTH 42 0
DWIDTH 23 0
BBX 23 32 0 0
BITMAP
007C00
007C00
00EE00
01C700
038380
000000
000000
003C00
007C00
007E00
00FE00
00FE00
00FF00
01EF00
01CF80
03C780
038780
0387C0
0783C0
0703C0
0F01E0
0E01E0
0FFFF0
1FFFF0
1FFFF0
1C00F8
380078
38007C
78003C
70003C
70003E
E0001E
ENDCHAR
STARTCHAR Atilde
ENCODING 195
SWIDTH 42 0
DWIDTH 23 0
BBX 23 31 0 0
BITMAP
01E180
03FF80
03FF00
030E00
000000
000000
003C00
007C00
007E00
00FE00
00FE00
00FF00
01EF00
01CF80
03C780
038780
0387C0
0783C0
0703C0
0F01E0
0E01E0
0FFFF0
1FFFF0
1FFFF0
1C00F8
380078
38007C
78003C
70003C
70003E
E0001E
ENDCHAR
STARTCHAR Adieresis
ENCODING 196
SWIDTH 42 0
DWIDTH 23 0
BBX 23 30 0 0
BITMAP
01C700
01C700
01C700
000000
000000
003C00
007C00
007E00
00FE00
00FE00
00FF00
01EF00
01CF80
03C780
038780
0387C0
0783C0
0703C0
0F01E0
0E01E0
0FFFF0
1FFFF0
1FFFF0
1C00F8
380078
38007C
78003C
70003C
70003E
E0001E
ENDCHAR
STARTCHAR Aring
ENCODING 197
SWIDTH 42 0
DWIDTH 23 0
BBX 23 32 0 0
BITMAP
003800
006C00
004400
006C00
003800
000000
000000
003C00
007C00
007E00
00FE00
00FE00
00FF00
01EF00
01CF80
03C780
038780
0387C0
0783C0
0703C0
0F01E0
0E01E0
0FFFF0
1FFFF0
1FFFF0
1C00F8
380078
38007C
78003C
70003C
70003E
E0001E
ENDCHAR
STARTCHAR AE
ENCODING 198
SWIDTH 42 0
DWIDTH 31 0
BBX 30 25 0 0
BITMAP
0003FFF8
0007FFF8
0007FFF8
000FE000
001FE000
001FE000
003DE000
0039E000
0079E000
0071E000
00E1FFF0
01E1FFF0
01C1FFF0
03C1E000
0381E000
07FFE000
07FFE000
0FFFE000
1E01E000
1C01E000
3C01E000
3801E000
7801FFFC
7001FFFC
F001FFFC
ENDCHAR
STARTCHAR Ccedilla
ENCODING 199
SWIDTH 42 0
DWIDTH 24 0
BBX 20 32 2 -7
BITMAP
00FF00
03FFF0
0FFFF0
1F80F0
3E0010
3C0000
7C0000
780000
F80000
F00000
F00000
F00000
F00000
F00000
F00000
F00000
F80000
780000
7C0000
3C0000
3E0010
1F80F0
0FFFF0
03FFE0
00FF00
006000
006000
003800
003800
003800
00F800
00F000
ENDCHAR
STARTCHAR Egrave
ENCODING 200
SWIDTH 42 0
DWIDTH 18 0
BBX 15 32 3 0
BITMAP
3C00
1E00
0E00
0700
0380
0000
0000
FFFC
FFFC
FFFC
F000
F000
F000
F000
F000
F000
F000
F000
FFF8
FFF8
FFF8
F000
F000
F000
F000
F000
F000
F000
F000
FFFE
FFFE
FFFE
ENDCHAR
STARTCHAR Eacute
ENCODING 201
SWIDTH 42 0
DWIDTH 18 0
BBX 15 32 3 0
BITMAP
01E0
03C0
0380
0700
0E00
0000
0000
FFFC
FFFC
FFFC
F000
F000
F000
F000
F000
F000
F000
F000
FFF8
FFF8
FFF8
F000
F000
F000
F000
F000
F000
F000
F000
FFFE
FFFE
FFFE
ENDCHAR
STARTCHAR Ecircumflex
ENCODING 202
SWIDTH 42 0
DWIDTH 18 0
BBX 15 32 3 0
BITMAP
0F80
0F80
1DC0
38E0
7070
0000
0000
FFFC
FFFC
FFFC
F000
F000
F000
F000
F000
F000
F000
F000
FFF8
FFF8
FFF8
F000
F000
F000
F000
F000
F000
F000
F000
FFFE
FFFE
FFFE
ENDCHAR
STARTCHAR Edieresis
ENCODING 203
SWIDTH 42 0
DWIDTH 18 0
BBX 15 30 3 0
BITMAP
38E0
38E0
38E0
0000
0000
FFFC
FFFC
FFFC
F000
F000
F000
F000
F000
F000
F000
F000
FFF8
FFF8
FFF8
F000
F000
F000
F000
F000
F000
F000
F000
FFFE
FFFE
FFFE
ENDCHAR
STARTCHAR Igrave
ENCODING 204
SWIDTH 42 0
DWIDTH 10 0
BBX 7 32 5 0
BITMAP
F0
78
38
1C
0E
00
00
3C
3C
3C
3C
3C
3C
3C
3C
3C
3C
3C
3C
3C
3C
3C
3C
3C
3C
3C
3C
3C
3C
3C
3C
3C
ENDCHAR
STARTCHAR Iacute
ENCODING 205
SWIDTH 42 0
DWIDTH 10 0
BBX 7 32 4 0
BITMAP
1E
3C
38
70
E0
00
00
78
78
78
78
78
78
78
78
78
78
78
78
78
78
78
78
78
78
78
78
78
78
78
78
78
ENDCHAR
STARTCHAR Icircumflex
ENCODING 206
SWIDTH 42 0
DWIDTH 10 0
BBX 11 32 6 0
BITMAP
1F00
1F00
3B80
71C0
E0E0
0000
0000
1E00
1E00
1E00
1E00
1E00
1E00
1E00
1E00
1E00
1E00
1E00
1E00
1E00
1E00
1E00
1E00
1E00
1E00
1E00
1E00
1E00
1E00
1E00
1E00
1E00
ENDCHAR
STARTCHAR Idieresis
ENCODING 207
SWIDTH 42 0
DWIDTH 10 0
BBX 9 30 5 0
BITMAP
E380
E380
E380
0000
0000
3C00
3C00
3C00
3C00
3C00
3C00
3C00
3C00
3C00
3C00
3C00
3C00
3C00
3C00
3C00
3C00
3C00
3C00
3C00
3C00
3C00
3C00
3C00
3C00
3C00
ENDCHAR
STARTCHAR Eth
ENCODING 208
SWIDTH 42 0
DWIDTH 25 0
BBX 25 25 0 0
BITMAP
0FFF8000
0FFFE000
0FFFF800
0F00FC00
0F003E00
0F001F00
0F000F00
0F000F00
0F000F80
0F000780
0F000780
FFFC0780
FFFC0780
FFFC0780
0F000780
0F000780
0F000700
0F000F00
0F000F00
0F001E00
0F003E00
0F00FC00
0FFFF800
0FFFE000
0FFF8000
ENDCHAR
STARTCHAR Ntilde
ENCODING 209
SWIDTH 42 0
DWIDTH 25 0
BBX 19 31 3 0
BITMAP
078600
0FFE00
0FFC00
0C3800
000000
000000
F000E0
F800E0
F800E0
FC00E0
FE00E0
FE00E0
FF00E0
EF80E0
E780E0
E7C0E0
E3E0E0
E1E0E0
E1F0E0
E0F8E0
E0F8E0
E07CE0
E03EE0
E03EE0
E01FE0
E00FE0
E00FE0
E007E0
E003E0
E003E0
E001E0
ENDCHAR
STARTCHAR Ograve
ENCODING 210
SWIDTH 42 0
DWIDTH 26 0
BBX 23 32 2 0
BITMAP
01E000
00F000
007000
003800
001C00
000000
000000
00FE00
07FFC0
0FFFE0
1F83F0
3E00F8
3C0078
78003C
78003C
F8003E
F0001E
F0001E
F0001E
F0001E
F0001E
F0001E
F0001E
F8003E
78003C
78003C
3C0078
3E00F8
1F83F0
0FFFE0
07FFC0
00FE00
ENDCHAR
STARTCHAR Oacute
ENCODING 211
SWIDTH 42 0
DWIDTH 26 0
BBX 23 32 2 0
BITMAP
000F00
001E00
001C00
003800
007000
000000
000000
00FE00
07FFC0
0FFFE0
1F83F0
3E00F8
3C0078
78003C
78003C
F8003E
F0001E
F0001E
F0001E
F0001E
F0001E
F0001E
F0001E
F8003E
78003C
78003C
3C0078
3E00F8
1F83F0
0FFFE0
07FFC0
00FE00
ENDCHAR
STARTCHAR Ocircumflex
ENCODING 212
SWIDTH 42 0
DWIDTH 26 0
BBX 23 32 2 0
BITMAP
007C00
007C00
00EE00
01C700
038380
000000
000000
00FE00
07FFC0
0FFFE0
1F83F0
3E00F8
3C0078
78003C
78003C
F8003E
F0001E
F0001E
F0001E
F0001E
F0001E
F0001E
F0001E
F8003E
78003C
78003C
3C0078
3E00F8
1F83F0
0FFFE0
07FFC0
00FE00
ENDCHAR
STARTCHAR Otilde
ENCODING 213
SWIDTH 42 0
DWIDTH 26 0
BBX 23 31 2 0
BITMAP
01E180
03FF80
03FF00
030E00
000000
000000
00FE00
07FFC0
0FFFE0
1F83F0
3E00F8
3C0078
78003C
78003C
F8003E
F0001E
F0001E
F0001E
F0001E
F0001E
F0001E
F0001E
F8003E
78003C
78003C
3C0078
3E00F8
1F83F0
0FFFE0
07FFC0
00FE00
ENDCHAR
STARTCHAR Odieresis
ENCODING 214
SWIDTH 42 0
DWIDTH 26 0
BBX 23 30 2 0
BITMAP
01C700
01C700
01C700
000000
000000
00FE00
07FFC0
0FFFE0
1F83F0
3E00F8
3C0078
78003C
78003C
F8003E
F0001E
F0001E
F0001E
F0001E
F0001E
F0001E
F0001E
F8003E
78003C
78003C
3C0078
3E00F8
1F83F0
0FFFE0
07FFC0
00FE00
ENDCHAR
STARTCHAR multiply
ENCODING 215
SWIDTH 42 0
DWIDTH 21 0
BBX 20 21 1 0
BITMAP
600060
E00070
F000F0
7801E0
3C03C0
1E0780
0F0F00
079E00
03FC00
01F800
00F000
01F800
03FC00
079E00
0F0F00
1E0780
3C03C0
7801E0
F000F0
E00070
600060
ENDCHAR
STARTCHAR Oslash
ENCODING 216
SWIDTH 42 0
DWIDTH 26 0
BBX 23 25 2 0
BITMAP
00FE1E
07FFFC
0FFFF8
1F83F8
3E00F8
3C01F8
7803FC
7803BC
F807BE
F00F1E
F01E1E
F03C1E
F0381E
F0781E
F0F01E
F1E01E
FBC03E
7B803C
7F803C
3F0078
3E00F8
3F83F0
3FFFE0
7FFFC0
F0FE00
ENDCHAR
STARTCHAR Ugrave
ENCODING 217
SWIDTH 42 0
DWIDTH 24 0
BBX 18 32 3 0
BITMAP
078000
03C000
01C000
00E000
007000
000000
000000
F001C0
F001C0
F001C0
F001C0
F001C0
F001C0
F001C0
F001C0
F001C0
F001C0
F001C0
F001C0
F001C0
F001C0
F001C0
F001C0
F001C0
F001C0
F001C0
F803C0
780380
7E0780
3FFF00
1FFE00
07F800
ENDCHAR
STARTCHAR Uacute
ENCODING 218
SWIDTH 42 0
DWIDTH 24 0
BBX 18 32 3 0
BITMAP
007800
00F000
00E000
01C000
038000
000000
000000
F001C0
F001C0
F001C0
F001C0
F001C0
F001C0
F001C0
F001C0
F001C0
F001C0
F001C0
F001C0
F001C0
F001C0
F001C0
F001C0
F001C0
F001C0
F001C0
F803C0
780380
7E0780
3FFF00
1FFE00
07F800
ENDCHAR
STARTCHAR Ucircumflex
ENCODING 219
SWIDTH 42 0
DWIDTH 24 0
BBX 18 32 3 0
BITMAP
01F000
01F000
03B800
071C00
0E0E00
000000
000000
F001C0
F001C0
F001C0
F001C0
F001C0
F001C0
F001C0
F001C0
F001C0
F001C0
F001C0
F001C0
F001C0
F001C0
F001C0
F001C0
F001C0
F001C0
F001C0
F803C0
780380
7E0780
3FFF00
1FFE00
07F800
ENDCHAR
STARTCHAR Udieresis
ENCODING 220
SWIDTH 42 0
DWIDTH 24 0
BBX 18 30 3 0
BITMAP
0E3800
0E3800
0E3800
000000
000000
F001C0
F001C0
F001C0
F001C0
F001C0
F001C0
F001C0
F001C0
F001C0
F001C0
F001C0
F001C0
F001C0
F001C0
F001C0
F001C0
F001C0
F001C0
F001C0
F803C0
780380
7E0780
3FFF00
1FFE00
07F800
ENDCHAR
STARTCHAR Yacute
ENCODING 221
SWIDTH 42 0
DWIDTH 21 0
BBX 21 32 0 0
BITMAP
001E00
003C00
003800
007000
00E000
000000
000000
F00078
780070
7C00F0
3C01E0
3E01C0
1E03C0
1F0380
0F8700
078F00
07CE00
03DE00
03FC00
01F800
01F800
00F000
00F000
00F000
00F000
00F000
00F000
00F000
00F000
00F000
00F000
00F000
ENDCHAR
STARTCHAR Thorn
ENCODING 222
SWIDTH 42 0
DWIDTH 19 0
BBX 15 25 3 0
BITMAP
F000
F000
F000
F000
F000
FFE0
FFF8
FFFC
F07E
F03E
F01E
F01E
F01E
F01E
F03E
F03C
F0FC
FFF8
FFF0
FFC0
F000
F000
F000
F000
F000
ENDCHAR
STARTCHAR germandbls
ENCODING 223
SWIDTH 42 0
DWIDTH 20 0
BBX 17 27 3 0
BITMAP
1FC000
3FF000
7FF000
78F800
F07800
F07800
F07800
F07000
F0F000
F0E000
F1C000
F1C000
F1E000
F1F000
F1F800
F0FC00
F07E00
F03F00
F01F00
F00780
F00780
F00380
F00380
F30780
F3FF00
F3FE00
F0FC00
ENDCHAR
STARTCHAR agrave
ENCODING 224
SWIDTH 42 0
DWIDTH 19 0
BBX 17 25 1 0
BITMAP
0F0000
078000
038000
01C000
00E000
000000
000000
07F000
3FF800
3FFC00
307C00
203C00
003C00
003C00
07FC00
1FFC00
7FFC00
7C3C00
F83C00
F03C00
F03C00
F87C00
7FFF80
7FCF80
1F0780
ENDCHAR
STARTCHAR aacute
ENCODING 225
SWIDTH 42 0
DWIDTH 19 0
BBX 17 25 1 0
BITMAP
00F000
01E000
01C000
038000
070000
000000
000000
07F000
3FF800
3FFC00
307C00
203C00
003C00
003C00
07FC00
1FFC00
7FFC00
7C3C00
F83C00
F03C00
F03C00
F87C00
7FFF80
7FCF80
1F0780
ENDCHAR
STARTCHAR acircumflex
ENCODING 226
SWIDTH 42 0
DWIDTH 19 0
BBX 17 25 1 0
BITMAP
03E000
03E000
077000
0E3800
1C1C00
000000
000000
07F000
3FF800
3FFC00
307C00
203C00
003C00
003C00
07FC00
1FFC00
7FFC00
7C3C00
F83C00
F03C00
F03C00
F87C00
7FFF80
7FCF80
1F0780
ENDCHAR
STARTCHAR atilde
ENCODING 227
SWIDTH 42 0
DWIDTH 19 0
BBX 17 24 1 0
BITMAP
0F0C00
1FFC00
1FF800
187000
000000
000000
07F000
3FF800
3FFC00
307C00
203C00
003C00
003C00
07FC00
1FFC00
7FFC00
7C3C00
F83C00
F03C00
F03C00
F87C00
7FFF80
7FCF80
1F0780
ENDCHAR
STARTCHAR adieresis
ENCODING 228
SWIDTH 42 0
DWIDTH 19 0
BBX 17 23 1 0
BITMAP
0E3800
0E3800
0E3800
000000
000000
07F000
3FF800
3FFC00
307C00
203C00
003C00
003C00
07FC00
1FFC00
7FFC00
7C3C00
F83C00
F03C00
F03C00
F87C00
7FFF80
7FCF80
1F0780
ENDCHAR
STARTCHAR aring
ENCODING 229
SWIDTH 42 0
DWIDTH 19 0
BBX 17 25 1 0
BITMAP
01C000
036000
022000
036000
01C000
000000
000000
07F000
3FF800
3FFC00
307C00
203C00
003C00
003C00
07FC00
1FFC00
7FFC00
7C3C00
F83C00
F03C00
F03C00
F87C00
7FFF80
7FCF80
1F0780
ENDCHAR
STARTCHAR ae
ENCODING 230
SWIDTH 42 0
DWIDTH 29 0
BBX 24 18 2 0
BITMAP
0FC1F0
3FF7FC
3FFFFC
307F1E
203E0E
003C0F
003C0F
07FFFF
1FFFFF
7FFFFF
7C3C00
F83C00
F03E00
F03F00
F86F81
7FCFFF
7F87FF
1E01FC
ENDCHAR
STARTCHAR ccedilla
ENCODING 231
SWIDTH 42 0
DWIDTH 17 0
BBX 14 25 2 -7
BITMAP
07FC
1FFC
3FFC
7E0C
7C00
7800
F000
F000
F000
F000
F000
F000
7800
7C00
3E04
3FFC
0FFC
07F0
0300
0300
01C0
01C0
01C0
07C0
0780
ENDCHAR
STARTCHAR egrave
ENCODING 232
SWIDTH 42 0
DWIDTH 19 0
BBX 15 25 2 0
BITMAP
1E00
0F00
0700
0380
01C0
0000
0000
07E0
1FF0
3FF8
3C3C
781C
701E
F01E
FFFE
FFFE
FFFE
F000
F000
7800
7C00
3E06
1FFE
0FFE
03F8
ENDCHAR
STARTCHAR eacute
ENCODING 233
SWIDTH 42 0
DWIDTH 19 0
BBX 15 25 2 0
BITMAP
00F0
01E0
01C0
0380
0700
0000
0000
07E0
1FF0
3FF8
3C3C
781C
701E
F01E
FFFE
FFFE
FFFE
F000
F000
7800
7C00
3E06
1FFE
0FFE
03F8
ENDCHAR
STARTCHAR ecircumflex
ENCODING 234
SWIDTH 42 0
DWIDTH 19 0
BBX 15 25 2 0
BITMAP
07C0
07C0
0EE0
1C70
3838
0000
0000
07E0
1FF0
3FF8
3C3C
781C
701E
F01E
FFFE
FFFE
FFFE
F000
F000
7800
7C00
3E06
1FFE
0FFE
03F8
ENDCHAR
STARTCHAR edieresis
ENCODING 235
SWIDTH 42 0
DWIDTH 19 0
BBX 15 23 2 0
BITMAP
1C70
1C70
1C70
0000
0000
07E0
1FF0
3FF8
3C3C
781C
701E
F01E
FFFE
FFFE
FFFE
F000
F000
7800
7C00
3E06
1FFE
0FFE
03F8
ENDCHAR
STARTCHAR igrave
ENCODING 236
SWIDTH 42 0
DWIDTH 10 0
BBX 7 25 5 0
BITMAP
F0
78
38
1C
0E
00
00
3C
3C
3C
3C
3C
3C
3C
3C
3C
3C
3C
3C
3C
3C
3C
3C
3C
3C
ENDCHAR
STARTCHAR iacute
ENCODING 237
SWIDTH 42 0
DWIDTH 10 0
BBX 7 25 4 0
BITMAP
1E
3C
38
70
E0
00
00
78
78
78
78
78
78
78
78
78
78
78
78
78
78
78
78
78
78
ENDCHAR
STARTCHAR icircumflex
ENCODING 238
SWIDTH 42 0
DWIDTH 10 0
BBX 11 25 6 0
BITMAP
1F00
1F00
3B80
71C0
E0E0
0000
0000
1E00
1E00
1E00
1E00
1E00
1E00
1E00
1E00
1E00
1E00
1E00
1E00
1E00
1E00
1E00
1E00
1E00
1E00
ENDCHAR
STARTCHAR idieresis
ENCODING 239
SWIDTH 42 0
DWIDTH 10 0
BBX 9 23 5 0
BITMAP
E380
E380
E380
0000
0000
3C00
3C00
3C00
3C00
3C00
3C00
3C00
3C00
3C00
3C00
3C00
3C00
3C00
3C00
3C00
3C00
3C00
3C00
ENDCHAR
STARTCHAR eth
ENCODING 240
SWIDTH 42 0
DWIDTH 20 0
BBX 17 26 2 0
BITMAP
FC4000
FFE000
C7E000
0FC000
3FE000
1EF000
187800
103C00
07FE00
1FFE00
3FFF00
7C1F00
780F80
F80F80
F00780
F00780
F00780
F00780
F00780
F00780
780F00
780F00
3E1E00
3FFE00
1FF800
07F000
ENDCHAR
STARTCHAR ntilde
ENCODING 241
SWIDTH 42 0
DWIDTH 21 0
BBX 15 24 3 0
BITMAP
1E18
3FF8
3FF0
30E0
0000
0000
F0F0
F3FC
F7FC
FE3E
FC1E
F81E
F01E
F01E
F01E
F01E
F01E
F01E
F01E
F01E
F01E
F01E
F01E
F01E
ENDCHAR
STARTCHAR ograve
ENCODING 242
SWIDTH 42 0
DWIDTH 21 0
BBX 17 25 2 0
BITMAP
0F0000
078000
038000
01C000
00E000
000000
000000
07F000
1FFC00
3FFE00
7C1F00
780F00
780F00
F00780
F00780
F00780
F00780
F00780
F00780
780F00
780F00
7C1F00
3FFE00
1FFC00
07F000
ENDCHAR
STARTCHAR oacute
ENCODING 243
SWIDTH 42 0
DWIDTH 21 0
BBX 17 25 2 0
BITMAP
007800
00F000
00E000
01C000
038000
000000
000000
07F000
1FFC00
3FFE00
7C1F00
780F00
780F00
F00780
F00780
F00780
F00780
F00780
F00780
780F00
780F00
7C1F00
3FFE00
1FFC00
07F000
ENDCHAR
STARTCHAR ocircumflex
ENCODING 244
SWIDTH 42 0
DWIDTH 21 0
BBX 17 25 2 0
BITMAP
03E000
03E000
077000
0E3800
1C1C00
000000
000000
07F000
1FFC00
3FFE00
7C1F00
780F00
780F00
F00780
F00780
F00780
F00780
F00780
F00780
780F00
780F00
7C1F00
3FFE00
1FFC00
07F000
ENDCHAR
STARTCHAR otilde
ENCODING 245
SWIDTH 42 0
DWIDTH 21 0
BBX 17 24 2 0
BITMAP
0F0C00
1FFC00
1FF800
187000
000000
000000
07F000
1FFC00
3FFE00
7C1F00
780F00
780F00
F00780
F00780
F00780
F00780
F00780
F00780
780F00
780F00
7C1F00
3FFE00
1FFC00
07F000
ENDCHAR
STARTCHAR odieresis
ENCODING 246
SWIDTH 42 0
DWIDTH 21 0
BBX 17 23 2 0
BITMAP
0E3800
0E3800
0E3800
000000
000000
07F000
1FFC00
3FFE00
7C1F00
780F00
780F00
F00780
F00780
F00780
F00780
F00780
F00780
780F00
780F00
7C1F00
3FFE00
1FFC00
07F000
ENDCHAR
STARTCHAR divide
ENCODING 247
SWIDTH 42 0
DWIDTH 21 0
BBX 20 17 1 1
BITMAP
00F000
00F000
00F000
00F000
000000
000000
000000
FFFFF0
FFFFF0
FFFFF0
000000
000000
000000
00F000
00F000
00F000
00F000
ENDCHAR
STARTCHAR oslash
ENCODING 248
SWIDTH 42 0
DWIDTH 21 0
BBX 17 18 2 0
BITMAP
07F780
1FFF00
3FFE00
7C1F00
783F00
787F00
F07780
F0F780
F1E780
F3C780
F78780
F70780
7F0F00
7E0F00
7C1F00
3FFE00
7FFC00
F7F000
ENDCHAR
STARTCHAR ugrave
ENCODING 249
SWIDTH 42 0
DWIDTH 21 0
BBX 15 25 3 0
BITMAP
1E00
0F00
0700
0380
01C0
0000
0000
F01E
F01E
F01E
F01E
F01E
F01E
F01E
F01E
F01E
F01E
F01E
F01E
F03E
F07E
F8FE
7FDE
7F9E
1E1E
ENDCHAR
STARTCHAR uacute
ENCODING 250
SWIDTH 42 0
DWIDTH 21 0
BBX 15 25 3 0
BITMAP
00F0
01E0
01C0
0380
0700
0000
0000
F01E
F01E
F01E
F01E
F01E
F01E
F01E
F01E
F01E
F01E
F01E
F01E
F03E
F07E
F8FE
7FDE
7F9E
1E1E
ENDCHAR
STARTCHAR ucircumflex
ENCODING 251
SWIDTH 42 0
DWIDTH 21 0
BBX 15 25 3 0
BITMAP
07C0
07C0
0EE0
1C70
3838
0000
0000
F01E
F01E
F01E
F01E
F01E
F01E
F01E
F01E
F01E
F01E
F01E
F01E
F03E
F07E
F8FE
7FDE
7F9E
1E1E
ENDCHAR
STARTCHAR udieresis
ENCODING 252
SWIDTH 42 0
DWIDTH 21 0
BBX 15 23 3 0
BITMAP
1C70
1C70
1C70
0000
0000
F01E
F01E
F01E
F01E
F01E
F01E
F01E
F01E
F01E
F01E
F01E
F01E
F03E
F07E
F8FE
7FDE
7F9E
1E1E
ENDCHAR
STARTCHAR yacute
ENCODING 253
SWIDTH 42 0
DWIDTH 18 0
BBX 17 32 0 -7
BITMAP
007800
00F000
00E000
01C000
038000
000000
000000
F00380
F80700
780700
780700
7C0E00
3C0E00
3C1E00
3E1C00
1E1C00
1E3800
1F3800
0F7800
0F7000
07F000
07E000
07E000
03E000
03C000
03C000
03C000
038000
078000
070000
070000
0F0000
ENDCHAR
STARTCHAR thorn
ENCODING 254
SWIDTH 42 0
DWIDTH 21 0
BBX 16 31 3 -7
BITMAP
F000
F000
F000
F000
F000
F000
F1F0
F3FC
F7FC
FC3E
F81E
F00F
F00F
F00F
F00F
F00F
F00F
F00F
F01E
F81E
FC3E
FFFC
F7F8
F1E0
F000
F000
F000
F000
F000
F000
F000
ENDCHAR
STARTCHAR ydieresis
ENCODING 255
SWIDTH 42 0
DWIDTH 18 0
BBX 17 30 0 -7
BITMAP
0E3800
0E3800
0E3800
000000
000000
F00380
F80700
780700
780700
7C0E00
3C0E00
3C1E00
3E1C00
1E1C00
1E3800
1F3800
0F7800
0F7000
07F000
07E000
07E000
03E000
03C000
03C000
03C000
038000
078000
070000
070000
0F0000
ENDCHAR
STARTCHAR fl
ENCODING -1
SWIDTH 42 0
DWIDTH 22 0
BBX 18 27 1 0
BITMAP
03FFC0
07FFC0
0FFFC0
1F07C0
1E03C0
1E03C0
1E03C0
1E03C0
1E03C0
FFC3C0
FFC3C0
FFC3C0
1E03C0
1E03C0
1E03C0
1E03C0
1E03C0
1E03C0
1E03C0
1E03C0
1E03C0
1E03C0
1E03C0
1E03C0
1E03C0
1E03C0
1E03C0
ENDCHAR
STARTCHAR endash
ENCODING -1
SWIDTH 42 0
DWIDTH 17 0
BBX 14 3 2 9
BITMAP
FFFC
FFFC
FFFC
ENDCHAR
STARTCHAR dagger
ENCODING -1
SWIDTH 42 0
DWIDTH 21 0
BBX 15 31 3 -6
BITMAP
0380
0380
0380
0380
0380
0380
0380
0380
0380
FFFE
FFFE
0380
0380
0380
0380
0380
0380
0380
0380
0380
0380
0380
0380
0380
0380
0380
0380
0380
0380
0380
0380
ENDCHAR
STARTCHAR Zcaron
ENCODING -1
SWIDTH 42 0
DWIDTH 21 0
BBX 17 32 2 0
BITMAP
1C1C00
0E3800
077000
03E000
03E000
000000
000000
7FFF80
7FFF80
7FFF80
000F80
001F00
001F00
003E00
007C00
007C00
00F800
01F000
01F000
03E000
07C000
07C000
0F8000
1F0000
1F0000
3E0000
7C0000
7C0000
F80000
FFFF80
FFFF80
FFFF80
ENDCHAR
STARTCHAR oe
ENCODING -1
SWIDTH 42 0
DWIDTH 32 0
BBX 27 18 2 0
BITMAP
07E07E00
1FF8FF80
3FF9FF80
7C3FC3C0
781F81C0
781F01E0
F00F01E0
F00FFFE0
F00FFFE0
F00FFFE0
F00F0000
F00F0000
781F8000
781FC000
7C3FE060
3FFDFFE0
1FF8FFE0
07E03F80
ENDCHAR
STARTCHAR Ydieresis
ENCODING -1
SWIDTH 42 0
DWIDTH 21 0
BBX 21 30 0 0
BITMAP
038E00
038E00
038E00
000000
000000
F00078
780070
7C00F0
3C01E0
3E01C0
1E03C0
1F0380
0F8700
078F00
07CE00
03DE00
03FC00
01F800
01F800
00F000
00F000
00F000
00F000
00F000
00F000
00F000
00F000
00F000
00F000
00F000
ENDCHAR
STARTCHAR dotlessi
ENCODING -1
SWIDTH 42 0
DWIDTH 10 0
BBX 4 18 3 0
BITMAP
F0
F0
F0
F0
F0
F0
F0
F0
F0
F0
F0
F0
F0
F0
F0
F0
F0
F0
ENDCHAR
STARTCHAR lslash
ENCODING -1
SWIDTH 42 0
DWIDTH 10 0
BBX 12 26 0 0
BITMAP
0F00
0F00
0F00
0F00
0F00
0F00
0F00
0F00
0F10
0F70
0FF0
0FE0
1F00
7F00
FF00
CF00
8F00
0F00
0F00
0F00
0F00
0F00
0F00
0F00
0F00
0F00
ENDCHAR
STARTCHAR Lslash
ENCODING -1
SWIDTH 42 0
DWIDTH 18 0
BBX 19 25 0 0
BITMAP
0F0000
0F0000
0F0000
0F0000
0F0000
0F0000
0F0000
0F0000
0F3000
0FF000
0FF000
0FC000
3F0000
FF0000
FF0000
CF0000
0F0000
0F0000
0F0000
0F0000
0F0000
0F0000
0FFFE0
0FFFE0
0FFFE0
ENDCHAR
STARTCHAR daggerdbl
ENCODING -1
SWIDTH 42 0
DWIDTH 21 0
BBX 15 31 3 -6
BITMAP
0380
0380
0380
0380
0380
0380
0380
0380
0380
FFFE
FFFE
0380
0380
0380
0380
0380
0380
0380
0380
FFFE
FFFE
0380
0380
0380
0380
0380
0380
0380
0380
0380
0380
ENDCHAR
STARTCHAR fi
ENCODING -1
SWIDTH 42 0
DWIDTH 22 0
BBX 18 27 1 0
BITMAP
03E000
07F000
0FF3C0
0F13C0
1E03C0
1E03C0
1E0000
1E0000
1E0000
FFFFC0
FFFFC0
FFFFC0
1E03C0
1E03C0
1E03C0
1E03C0
1E03C0
1E03C0
1E03C0
1E03C0
1E03C0
1E03C0
1E03C0
1E03C0
1E03C0
1E03C0
1E03C0
ENDCHAR
STARTCHAR guilsinglright
ENCODING -1
SWIDTH 42 0
DWIDTH 11 0
BBX 8 16 1 1
BITMAP
40
E0
F0
78
3C
1C
1E
0F
0F
1E
1C
3C
78
F0
E0
40
ENDCHAR
STARTCHAR OE
ENCODING -1
SWIDTH 42 0
DWIDTH 34 0
BBX 31 25 2 0
BITMAP
01FEFFFC
07FFFFFC
0FFFFFFC
1F03F000
3E01F000
3C01F000
7800F000
7800F000
F000F000
F000F000
F000F000
F000FFF8
F000FFF8
F000FFF8
F000F000
F000F000
F000F000
7800F000
7800F000
3C01F000
3E01F000
1F03F000
0FFFFFFE
07FFFFFE
01FCFFFE
ENDCHAR
STARTCHAR emdash
ENCODING -1
SWIDTH 42 0
DWIDTH 34 0
BBX 31 2 2 9
BITMAP
FFFFFFFE
FFFFFFFE
ENDCHAR
STARTCHAR caron
ENCODING -1
SWIDTH 42 0
DWIDTH 21 0
BBX 11 5 5 21
BITMAP
E0E0
71C0
3B80
1F00
1F00
ENDCHAR
STARTCHAR ogonek
ENCODING -1
SWIDTH 42 0
DWIDTH 21 0
BBX 6 5 8 -6
BITMAP
38
E0
E0
F4
7C
ENDCHAR
STARTCHAR hungarumlaut
ENCODING -1
SWIDTH 42 0
DWIDTH 21 0
BBX 10 5 7 21
BITMAP
1DC0
1B80
3300
6600
CC00
ENDCHAR
STARTCHAR guilsinglleft
ENCODING -1
SWIDTH 42 0
DWIDTH 11 0
BBX 8 16 2 1
BITMAP
02
07
0F
1E
3C
38
78
F0
F0
78
38
3C
1E
0F
07
02
ENDCHAR
STARTCHAR dotaccent
ENCODING -1
SWIDTH 42 0
DWIDTH 21 0
BBX 3 4 9 21
BITMAP
E0
E0
E0
E0
ENDCHAR
STARTCHAR breve
ENCODING -1
SWIDTH 42 0
DWIDTH 21 0
BBX 11 5 5 21
BITMAP
C060
E0E0
7FC0
3F80
1F00
ENDCHAR
STARTCHAR bullet
ENCODING -1
SWIDTH 42 0
DWIDTH 21 0
BBX 10 10 6 6
BITMAP
FFC0
FFC0
FFC0
FFC0
FFC0
FFC0
FFC0
FFC0
FFC0
FFC0
ENDCHAR
STARTCHAR tilde
ENCODING -1
SWIDTH 42 0
DWIDTH 21 0
BBX 11 4 5 21
BITMAP
7860
FFE0
FFC0
C380
ENDCHAR
STARTCHAR circumflex
ENCODING -1
SWIDTH 42 0
DWIDTH 21 0
BBX 11 5 5 21
BITMAP
1F00
1F00
3B80
71C0
E0E0
ENDCHAR
STARTCHAR quotedblleft
ENCODING -1
SWIDTH 42 0
DWIDTH 13 0
BBX 9 9 2 17
BITMAP
3180
7380
6300
E700
E700
F780
F780
F780
F780
ENDCHAR
STARTCHAR quotesingle
ENCODING -1
SWIDTH 42 0
DWIDTH 8 0
BBX 5 9 1 17
BITMAP
F8
F8
F8
F8
F8
70
70
70
70
ENDCHAR
STARTCHAR scaron
ENCODING -1
SWIDTH 42 0
DWIDTH 17 0
BBX 12 25 3 0
BITMAP
7070
38E0
1DC0
0F80
0F80
0000
0000
1FE0
7FE0
7FE0
F860
F000
F000
FC00
7F00
7FC0
1FE0
07F0
01F0
00F0
80F0
E1F0
FFE0
FFC0
3F80
ENDCHAR
STARTCHAR ring
ENCODING -1
SWIDTH 42 0
DWIDTH 21 0
BBX 5 5 8 22
BITMAP
70
D8
88
D8
70
ENDCHAR
STARTCHAR quotesinglbase
ENCODING -1
SWIDTH 42 0
DWIDTH 8 0
BBX 4 11 2 -6
BITMAP
F0
F0
F0
F0
F0
70
70
70
60
E0
C0
ENDCHAR
STARTCHAR florin
ENCODING -1
SWIDTH 42 0
DWIDTH 21 0
BBX 16 31 4 -6
BITMAP
007F
00FF
01FF
03C1
0780
0780
0780
0F80
0F00
0F00
0F00
7FC0
7FC0
7FC0
0F00
0F00
1E00
1E00
1E00
1E00
3C00
3C00
3C00
3C00
3C00
7800
7800
7800
7800
F000
F000
ENDCHAR
STARTCHAR trademark
ENCODING -1
SWIDTH 42 0
DWIDTH 27 0
BBX 26 13 0 12
BITMAP
FFE783C0
FFE7C3C0
FFE7C7C0
0E07C7C0
0E07EFC0
0E07EFC0
0E07FDC0
0E077DC0
0E077DC0
0E0739C0
0E0739C0
0E0739C0
0E0701C0
ENDCHAR
STARTCHAR fraction
ENCODING -1
SWIDTH 42 0
DWIDTH 1 0
BBX 21 25 -9 0
BITMAP
000078
0000F0
0000E0
0001E0
0003C0
000380
000780
000F00
000E00
001C00
003C00
007800
007000
00F000
01E000
01C000
038000
078000
0F0000
0E0000
1E0000
3C0000
380000
700000
F00000
ENDCHAR
STARTCHAR grave
ENCODING -1
SWIDTH 42 0
DWIDTH 21 0
BBX 7 5 6 21
BITMAP
F0
78
38
1C
0E
ENDCHAR
STARTCHAR perthousand
ENCODING -1
SWIDTH 42 0
DWIDTH 34 0
BBX 32 25 1 0
BITMAP
1E007800
7F807000
7380F000
E1C1E000
E1C3C000
E1C38000
E1C78000
E1CF0000
E1CE0000
739E0000
7FBC0000
1E780000
0073C078
00F7E0FC
01EE71CE
03DC3B87
039C3B87
079C3B87
0F1C3B87
0E1C3B87
1E1C3B87
3C1C3B87
780E71CE
7007E0FC
F003C078
ENDCHAR
STARTCHAR ellipsis
ENCODING -1
SWIDTH 42 0
DWIDTH 34 0
BBX 26 4 4 0
BITMAP
F01E03C0
F01E03C0
F01E03C0
F01E03C0
ENDCHAR
STARTCHAR quotedblright
ENCODING -1
SWIDTH 42 0
DWIDTH 13 0
BBX 9 9 2 17
BITMAP
F780
F780
F780
F780
7380
7380
6300
E700
C600
ENDCHAR
STARTCHAR Scaron
ENCODING -1
SWIDTH 42 0
DWIDTH 18 0
BBX 15 32 2 0
BITMAP
3838
1C70
0EE0
07C0
07C0
0000
0000
0FF0
3FF8
7FF8
7C38
F008
F000
F000
F000
F800
7E00
3F80
1FC0
0FF0
03F8
00FC
007E
003E
001E
001E
001E
803E
F07C
FFF8
FFF0
3FC0
ENDCHAR
STARTCHAR quotedblbase
ENCODING -1
SWIDTH 42 0
DWIDTH 13 0
BBX 9 10 2 -6
BITMAP
F780
F780
F780
F780
7380
7380
7380
6300
E700
8400
ENDCHAR
STARTCHAR zcaron
ENCODING -1
SWIDTH 42 0
DWIDTH 19 0
BBX 15 25 2 0
BITMAP
3838
1C70
0EE0
07C0
07C0
0000
0000
7FFE
7FFE
7FFE
003C
0078
00F0
00F0
01E0
03C0
0780
0F00
1E00
3C00
3C00
7800
FFFE
FFFE
FFFE
ENDCHAR
ENDFONT
